<mxfile host="app.diagrams.net" agent="Mozilla/5.0 (Windows NT 10.0; Win64; x64) AppleWebKit/537.36 (KHTML, like Gecko) Chrome/131.0.0.0 Safari/537.36" version="25.0.1">
  <diagram name="Page-1" id="txDZSW4YmTm9a8Lu6rOX">
    <mxGraphModel dx="4198" dy="1544" grid="1" gridSize="10" guides="1" tooltips="1" connect="1" arrows="1" fold="1" page="1" pageScale="1" pageWidth="850" pageHeight="1100" math="0" shadow="0">
      <root>
        <mxCell id="0" />
        <mxCell id="1" parent="0" />
        <mxCell id="4LPt7A7u2BAdctlP4rSh-1" value="Person" style="rounded=1;arcSize=10;whiteSpace=wrap;html=1;align=center;" vertex="1" parent="1">
          <mxGeometry x="210" y="350" width="100" height="40" as="geometry" />
        </mxCell>
        <mxCell id="4LPt7A7u2BAdctlP4rSh-3" value="Name" style="ellipse;whiteSpace=wrap;html=1;align=center;" vertex="1" parent="1">
          <mxGeometry x="110" y="260" width="100" height="40" as="geometry" />
        </mxCell>
        <mxCell id="4LPt7A7u2BAdctlP4rSh-5" value="CPR" style="ellipse;whiteSpace=wrap;html=1;align=center;fontStyle=4;" vertex="1" parent="1">
          <mxGeometry x="220" y="230" width="100" height="40" as="geometry" />
        </mxCell>
        <mxCell id="4LPt7A7u2BAdctlP4rSh-6" value="History" style="ellipse;whiteSpace=wrap;html=1;align=center;" vertex="1" parent="1">
          <mxGeometry x="70" y="310" width="100" height="40" as="geometry" />
        </mxCell>
        <mxCell id="4LPt7A7u2BAdctlP4rSh-7" value="TelNum" style="ellipse;whiteSpace=wrap;html=1;align=center;" vertex="1" parent="1">
          <mxGeometry x="50" y="370" width="100" height="40" as="geometry" />
        </mxCell>
        <mxCell id="4LPt7A7u2BAdctlP4rSh-8" value="Age" style="ellipse;whiteSpace=wrap;html=1;align=center;" vertex="1" parent="1">
          <mxGeometry x="360" y="340" width="100" height="40" as="geometry" />
        </mxCell>
        <mxCell id="4LPt7A7u2BAdctlP4rSh-9" value="DOB" style="ellipse;whiteSpace=wrap;html=1;align=center;" vertex="1" parent="1">
          <mxGeometry x="330" y="270" width="100" height="40" as="geometry" />
        </mxCell>
        <mxCell id="4LPt7A7u2BAdctlP4rSh-13" value="" style="endArrow=none;html=1;rounded=0;entryX=0;entryY=0;entryDx=0;entryDy=0;" edge="1" parent="1" target="4LPt7A7u2BAdctlP4rSh-1">
          <mxGeometry relative="1" as="geometry">
            <mxPoint x="170" y="329.5" as="sourcePoint" />
            <mxPoint x="330" y="329.5" as="targetPoint" />
          </mxGeometry>
        </mxCell>
        <mxCell id="4LPt7A7u2BAdctlP4rSh-14" value="" style="endArrow=none;html=1;rounded=0;entryX=0;entryY=0.5;entryDx=0;entryDy=0;exitX=1;exitY=0.5;exitDx=0;exitDy=0;" edge="1" parent="1" source="4LPt7A7u2BAdctlP4rSh-7" target="4LPt7A7u2BAdctlP4rSh-1">
          <mxGeometry relative="1" as="geometry">
            <mxPoint x="180" y="339.5" as="sourcePoint" />
            <mxPoint x="220" y="360" as="targetPoint" />
          </mxGeometry>
        </mxCell>
        <mxCell id="4LPt7A7u2BAdctlP4rSh-15" value="" style="endArrow=none;html=1;rounded=0;entryX=0.25;entryY=0;entryDx=0;entryDy=0;exitX=1;exitY=1;exitDx=0;exitDy=0;" edge="1" parent="1" source="4LPt7A7u2BAdctlP4rSh-3" target="4LPt7A7u2BAdctlP4rSh-1">
          <mxGeometry relative="1" as="geometry">
            <mxPoint x="190" y="349.5" as="sourcePoint" />
            <mxPoint x="230" y="370" as="targetPoint" />
          </mxGeometry>
        </mxCell>
        <mxCell id="4LPt7A7u2BAdctlP4rSh-16" value="" style="endArrow=none;html=1;rounded=0;entryX=0.5;entryY=0;entryDx=0;entryDy=0;exitX=0.5;exitY=1;exitDx=0;exitDy=0;" edge="1" parent="1" source="4LPt7A7u2BAdctlP4rSh-5" target="4LPt7A7u2BAdctlP4rSh-1">
          <mxGeometry relative="1" as="geometry">
            <mxPoint x="200" y="359.5" as="sourcePoint" />
            <mxPoint x="240" y="380" as="targetPoint" />
          </mxGeometry>
        </mxCell>
        <mxCell id="4LPt7A7u2BAdctlP4rSh-17" value="" style="endArrow=none;html=1;rounded=0;entryX=1;entryY=0;entryDx=0;entryDy=0;exitX=0;exitY=1;exitDx=0;exitDy=0;" edge="1" parent="1" source="4LPt7A7u2BAdctlP4rSh-9" target="4LPt7A7u2BAdctlP4rSh-1">
          <mxGeometry relative="1" as="geometry">
            <mxPoint x="210" y="369.5" as="sourcePoint" />
            <mxPoint x="250" y="390" as="targetPoint" />
          </mxGeometry>
        </mxCell>
        <mxCell id="4LPt7A7u2BAdctlP4rSh-18" value="" style="endArrow=none;html=1;rounded=0;entryX=1;entryY=0.5;entryDx=0;entryDy=0;exitX=0;exitY=0.5;exitDx=0;exitDy=0;" edge="1" parent="1" source="4LPt7A7u2BAdctlP4rSh-8" target="4LPt7A7u2BAdctlP4rSh-1">
          <mxGeometry relative="1" as="geometry">
            <mxPoint x="220" y="379.5" as="sourcePoint" />
            <mxPoint x="260" y="400" as="targetPoint" />
          </mxGeometry>
        </mxCell>
        <mxCell id="4LPt7A7u2BAdctlP4rSh-19" value="" style="triangle;whiteSpace=wrap;html=1;rotation=-90;" vertex="1" parent="1">
          <mxGeometry x="230" y="460" width="60" height="80" as="geometry" />
        </mxCell>
        <mxCell id="4LPt7A7u2BAdctlP4rSh-20" value="&lt;font style=&quot;font-size: 18px;&quot;&gt;is&lt;/font&gt;&lt;div&gt;&lt;font size=&quot;3&quot;&gt;a&lt;/font&gt;&lt;/div&gt;" style="text;html=1;align=center;verticalAlign=middle;resizable=0;points=[];autosize=1;strokeColor=none;fillColor=none;" vertex="1" parent="1">
          <mxGeometry x="240" y="480" width="40" height="50" as="geometry" />
        </mxCell>
        <mxCell id="4LPt7A7u2BAdctlP4rSh-21" value="" style="endArrow=none;html=1;rounded=0;entryX=0.5;entryY=1;entryDx=0;entryDy=0;" edge="1" parent="1" target="4LPt7A7u2BAdctlP4rSh-1">
          <mxGeometry width="50" height="50" relative="1" as="geometry">
            <mxPoint x="260" y="470" as="sourcePoint" />
            <mxPoint x="310" y="420" as="targetPoint" />
          </mxGeometry>
        </mxCell>
        <mxCell id="4LPt7A7u2BAdctlP4rSh-22" value="" style="endArrow=none;html=1;rounded=0;entryX=0.5;entryY=1;entryDx=0;entryDy=0;" edge="1" parent="1">
          <mxGeometry width="50" height="50" relative="1" as="geometry">
            <mxPoint x="259.5" y="610" as="sourcePoint" />
            <mxPoint x="259.5" y="530" as="targetPoint" />
          </mxGeometry>
        </mxCell>
        <mxCell id="4LPt7A7u2BAdctlP4rSh-23" value="Register" style="rounded=1;arcSize=10;whiteSpace=wrap;html=1;align=center;" vertex="1" parent="1">
          <mxGeometry x="210" y="610" width="100" height="40" as="geometry" />
        </mxCell>
        <mxCell id="4LPt7A7u2BAdctlP4rSh-24" value="Password" style="ellipse;whiteSpace=wrap;html=1;align=center;" vertex="1" parent="1">
          <mxGeometry x="395" y="610" width="100" height="40" as="geometry" />
        </mxCell>
        <mxCell id="4LPt7A7u2BAdctlP4rSh-25" value="Email" style="ellipse;whiteSpace=wrap;html=1;align=center;" vertex="1" parent="1">
          <mxGeometry x="50" y="610" width="100" height="40" as="geometry" />
        </mxCell>
        <mxCell id="4LPt7A7u2BAdctlP4rSh-26" value="" style="endArrow=none;html=1;rounded=0;" edge="1" parent="1" target="4LPt7A7u2BAdctlP4rSh-24">
          <mxGeometry width="50" height="50" relative="1" as="geometry">
            <mxPoint x="310" y="630" as="sourcePoint" />
            <mxPoint x="360" y="580" as="targetPoint" />
          </mxGeometry>
        </mxCell>
        <mxCell id="4LPt7A7u2BAdctlP4rSh-27" value="" style="endArrow=none;html=1;rounded=0;entryX=0;entryY=0.5;entryDx=0;entryDy=0;" edge="1" parent="1" target="4LPt7A7u2BAdctlP4rSh-23">
          <mxGeometry width="50" height="50" relative="1" as="geometry">
            <mxPoint x="150" y="630" as="sourcePoint" />
            <mxPoint x="200" y="580" as="targetPoint" />
          </mxGeometry>
        </mxCell>
        <mxCell id="4LPt7A7u2BAdctlP4rSh-28" value="Login" style="rounded=1;arcSize=10;whiteSpace=wrap;html=1;align=center;" vertex="1" parent="1">
          <mxGeometry x="880" y="350" width="100" height="40" as="geometry" />
        </mxCell>
        <mxCell id="4LPt7A7u2BAdctlP4rSh-29" value="Password" style="ellipse;whiteSpace=wrap;html=1;align=center;" vertex="1" parent="1">
          <mxGeometry x="1065" y="350" width="100" height="40" as="geometry" />
        </mxCell>
        <mxCell id="4LPt7A7u2BAdctlP4rSh-30" value="Email" style="ellipse;whiteSpace=wrap;html=1;align=center;" vertex="1" parent="1">
          <mxGeometry x="720" y="350" width="100" height="40" as="geometry" />
        </mxCell>
        <mxCell id="4LPt7A7u2BAdctlP4rSh-31" value="" style="endArrow=none;html=1;rounded=0;" edge="1" parent="1" target="4LPt7A7u2BAdctlP4rSh-29">
          <mxGeometry width="50" height="50" relative="1" as="geometry">
            <mxPoint x="980" y="370" as="sourcePoint" />
            <mxPoint x="1030" y="320" as="targetPoint" />
          </mxGeometry>
        </mxCell>
        <mxCell id="4LPt7A7u2BAdctlP4rSh-32" value="" style="endArrow=none;html=1;rounded=0;entryX=0;entryY=0.5;entryDx=0;entryDy=0;" edge="1" parent="1" target="4LPt7A7u2BAdctlP4rSh-28">
          <mxGeometry width="50" height="50" relative="1" as="geometry">
            <mxPoint x="820" y="370" as="sourcePoint" />
            <mxPoint x="870" y="320" as="targetPoint" />
          </mxGeometry>
        </mxCell>
        <mxCell id="4LPt7A7u2BAdctlP4rSh-34" value="CPR" style="ellipse;whiteSpace=wrap;html=1;align=center;fontStyle=4;" vertex="1" parent="1">
          <mxGeometry x="820" y="230" width="100" height="40" as="geometry" />
        </mxCell>
        <mxCell id="4LPt7A7u2BAdctlP4rSh-35" value="" style="endArrow=none;html=1;rounded=0;entryX=0.5;entryY=1;entryDx=0;entryDy=0;exitX=0.25;exitY=0;exitDx=0;exitDy=0;" edge="1" parent="1" source="4LPt7A7u2BAdctlP4rSh-28" target="4LPt7A7u2BAdctlP4rSh-34">
          <mxGeometry width="50" height="50" relative="1" as="geometry">
            <mxPoint x="930" y="350" as="sourcePoint" />
            <mxPoint x="980" y="300" as="targetPoint" />
          </mxGeometry>
        </mxCell>
        <mxCell id="4LPt7A7u2BAdctlP4rSh-36" value="History" style="ellipse;whiteSpace=wrap;html=1;align=center;" vertex="1" parent="1">
          <mxGeometry x="950" y="230" width="100" height="40" as="geometry" />
        </mxCell>
        <mxCell id="4LPt7A7u2BAdctlP4rSh-37" value="" style="endArrow=none;html=1;rounded=0;entryX=0.5;entryY=1;entryDx=0;entryDy=0;" edge="1" parent="1" target="4LPt7A7u2BAdctlP4rSh-36">
          <mxGeometry width="50" height="50" relative="1" as="geometry">
            <mxPoint x="950" y="350" as="sourcePoint" />
            <mxPoint x="1000" y="300" as="targetPoint" />
          </mxGeometry>
        </mxCell>
        <mxCell id="4LPt7A7u2BAdctlP4rSh-38" value="Answers" style="rounded=1;arcSize=10;whiteSpace=wrap;html=1;align=center;" vertex="1" parent="1">
          <mxGeometry x="800" y="705" width="100" height="40" as="geometry" />
        </mxCell>
        <mxCell id="4LPt7A7u2BAdctlP4rSh-40" value="Detail" style="ellipse;whiteSpace=wrap;html=1;align=center;" vertex="1" parent="1">
          <mxGeometry x="960" y="705" width="100" height="40" as="geometry" />
        </mxCell>
        <mxCell id="4LPt7A7u2BAdctlP4rSh-41" value="Key" style="ellipse;whiteSpace=wrap;html=1;align=center;" vertex="1" parent="1">
          <mxGeometry x="630" y="705" width="100" height="40" as="geometry" />
        </mxCell>
        <mxCell id="4LPt7A7u2BAdctlP4rSh-42" value="ID" style="ellipse;whiteSpace=wrap;html=1;align=center;fontStyle=4;" vertex="1" parent="1">
          <mxGeometry x="800" y="590" width="100" height="40" as="geometry" />
        </mxCell>
        <mxCell id="4LPt7A7u2BAdctlP4rSh-43" value="" style="endArrow=none;html=1;rounded=0;entryX=0.5;entryY=1;entryDx=0;entryDy=0;exitX=0.5;exitY=0;exitDx=0;exitDy=0;" edge="1" parent="1" source="4LPt7A7u2BAdctlP4rSh-38" target="4LPt7A7u2BAdctlP4rSh-42">
          <mxGeometry width="50" height="50" relative="1" as="geometry">
            <mxPoint x="845" y="705" as="sourcePoint" />
            <mxPoint x="895" y="655" as="targetPoint" />
          </mxGeometry>
        </mxCell>
        <mxCell id="4LPt7A7u2BAdctlP4rSh-44" value="" style="endArrow=none;html=1;rounded=0;entryX=0;entryY=0.5;entryDx=0;entryDy=0;exitX=0.5;exitY=0;exitDx=0;exitDy=0;" edge="1" parent="1" target="4LPt7A7u2BAdctlP4rSh-38">
          <mxGeometry width="50" height="50" relative="1" as="geometry">
            <mxPoint x="729" y="725" as="sourcePoint" />
            <mxPoint x="729" y="650" as="targetPoint" />
          </mxGeometry>
        </mxCell>
        <mxCell id="4LPt7A7u2BAdctlP4rSh-45" value="" style="endArrow=none;html=1;rounded=0;entryX=0;entryY=0.5;entryDx=0;entryDy=0;exitX=0.5;exitY=0;exitDx=0;exitDy=0;" edge="1" parent="1" target="4LPt7A7u2BAdctlP4rSh-40">
          <mxGeometry width="50" height="50" relative="1" as="geometry">
            <mxPoint x="900" y="725" as="sourcePoint" />
            <mxPoint x="900" y="650" as="targetPoint" />
          </mxGeometry>
        </mxCell>
        <mxCell id="4LPt7A7u2BAdctlP4rSh-46" value="QandA" style="rounded=1;arcSize=10;whiteSpace=wrap;html=1;align=center;" vertex="1" parent="1">
          <mxGeometry x="800" y="970" width="100" height="40" as="geometry" />
        </mxCell>
        <mxCell id="4LPt7A7u2BAdctlP4rSh-47" value="AnswerList" style="shape=rhombus;perimeter=rhombusPerimeter;whiteSpace=wrap;html=1;align=center;" vertex="1" parent="1">
          <mxGeometry x="790" y="830" width="120" height="60" as="geometry" />
        </mxCell>
        <mxCell id="4LPt7A7u2BAdctlP4rSh-48" value="" style="endArrow=none;html=1;rounded=0;entryX=0.5;entryY=1;entryDx=0;entryDy=0;exitX=0.5;exitY=0;exitDx=0;exitDy=0;" edge="1" parent="1" source="4LPt7A7u2BAdctlP4rSh-47" target="4LPt7A7u2BAdctlP4rSh-38">
          <mxGeometry width="50" height="50" relative="1" as="geometry">
            <mxPoint x="849.5" y="825" as="sourcePoint" />
            <mxPoint x="849.5" y="750" as="targetPoint" />
          </mxGeometry>
        </mxCell>
        <mxCell id="4LPt7A7u2BAdctlP4rSh-49" value="" style="endArrow=none;html=1;rounded=0;entryX=0.5;entryY=1;entryDx=0;entryDy=0;exitX=0.5;exitY=0;exitDx=0;exitDy=0;" edge="1" parent="1" source="4LPt7A7u2BAdctlP4rSh-46" target="4LPt7A7u2BAdctlP4rSh-47">
          <mxGeometry width="50" height="50" relative="1" as="geometry">
            <mxPoint x="849.5" y="970" as="sourcePoint" />
            <mxPoint x="849.5" y="895" as="targetPoint" />
          </mxGeometry>
        </mxCell>
        <mxCell id="4LPt7A7u2BAdctlP4rSh-50" value="Question" style="ellipse;whiteSpace=wrap;html=1;align=center;" vertex="1" parent="1">
          <mxGeometry x="800" y="1100" width="100" height="40" as="geometry" />
        </mxCell>
        <mxCell id="4LPt7A7u2BAdctlP4rSh-51" value="History" style="ellipse;whiteSpace=wrap;html=1;align=center;" vertex="1" parent="1">
          <mxGeometry x="975" y="970" width="100" height="40" as="geometry" />
        </mxCell>
        <mxCell id="4LPt7A7u2BAdctlP4rSh-53" value="ID" style="ellipse;whiteSpace=wrap;html=1;align=center;fontStyle=4;" vertex="1" parent="1">
          <mxGeometry x="945" y="1080" width="100" height="40" as="geometry" />
        </mxCell>
        <mxCell id="4LPt7A7u2BAdctlP4rSh-54" value="" style="endArrow=none;html=1;rounded=0;entryX=0.5;entryY=1;entryDx=0;entryDy=0;exitX=0.5;exitY=0;exitDx=0;exitDy=0;" edge="1" parent="1" source="4LPt7A7u2BAdctlP4rSh-50" target="4LPt7A7u2BAdctlP4rSh-46">
          <mxGeometry width="50" height="50" relative="1" as="geometry">
            <mxPoint x="849.5" y="1085" as="sourcePoint" />
            <mxPoint x="849.5" y="1010" as="targetPoint" />
          </mxGeometry>
        </mxCell>
        <mxCell id="4LPt7A7u2BAdctlP4rSh-55" value="" style="endArrow=none;html=1;rounded=0;entryX=0;entryY=0.5;entryDx=0;entryDy=0;exitX=1;exitY=0.5;exitDx=0;exitDy=0;" edge="1" parent="1" source="4LPt7A7u2BAdctlP4rSh-46" target="4LPt7A7u2BAdctlP4rSh-51">
          <mxGeometry width="50" height="50" relative="1" as="geometry">
            <mxPoint x="900" y="995" as="sourcePoint" />
            <mxPoint x="900" y="920" as="targetPoint" />
          </mxGeometry>
        </mxCell>
        <mxCell id="4LPt7A7u2BAdctlP4rSh-56" value="" style="endArrow=none;html=1;rounded=0;exitX=0;exitY=0;exitDx=0;exitDy=0;entryX=1;entryY=1;entryDx=0;entryDy=0;" edge="1" parent="1" source="4LPt7A7u2BAdctlP4rSh-53" target="4LPt7A7u2BAdctlP4rSh-46">
          <mxGeometry width="50" height="50" relative="1" as="geometry">
            <mxPoint x="899" y="1085" as="sourcePoint" />
            <mxPoint x="905" y="1010" as="targetPoint" />
          </mxGeometry>
        </mxCell>
        <mxCell id="4LPt7A7u2BAdctlP4rSh-57" value="Form" style="rounded=1;arcSize=10;whiteSpace=wrap;html=1;align=center;" vertex="1" parent="1">
          <mxGeometry x="210" y="970" width="100" height="40" as="geometry" />
        </mxCell>
        <mxCell id="4LPt7A7u2BAdctlP4rSh-58" value="Owner" style="shape=rhombus;perimeter=rhombusPerimeter;whiteSpace=wrap;html=1;align=center;" vertex="1" parent="1">
          <mxGeometry x="200" y="760" width="120" height="60" as="geometry" />
        </mxCell>
        <mxCell id="4LPt7A7u2BAdctlP4rSh-59" value="" style="endArrow=none;html=1;rounded=0;entryX=0.5;entryY=1;entryDx=0;entryDy=0;" edge="1" parent="1" target="4LPt7A7u2BAdctlP4rSh-23">
          <mxGeometry width="50" height="50" relative="1" as="geometry">
            <mxPoint x="260" y="760" as="sourcePoint" />
            <mxPoint x="259.5" y="685" as="targetPoint" />
          </mxGeometry>
        </mxCell>
        <mxCell id="4LPt7A7u2BAdctlP4rSh-60" value="" style="endArrow=none;html=1;rounded=0;entryX=0.5;entryY=1;entryDx=0;entryDy=0;exitX=0.5;exitY=0;exitDx=0;exitDy=0;" edge="1" parent="1" source="4LPt7A7u2BAdctlP4rSh-57" target="4LPt7A7u2BAdctlP4rSh-58">
          <mxGeometry width="50" height="50" relative="1" as="geometry">
            <mxPoint x="259.5" y="970" as="sourcePoint" />
            <mxPoint x="259.5" y="895" as="targetPoint" />
          </mxGeometry>
        </mxCell>
        <mxCell id="4LPt7A7u2BAdctlP4rSh-61" value="History" style="ellipse;whiteSpace=wrap;html=1;align=center;" vertex="1" parent="1">
          <mxGeometry x="10" y="970" width="100" height="40" as="geometry" />
        </mxCell>
        <mxCell id="4LPt7A7u2BAdctlP4rSh-62" value="Name" style="ellipse;whiteSpace=wrap;html=1;align=center;" vertex="1" parent="1">
          <mxGeometry x="30" y="890" width="100" height="40" as="geometry" />
        </mxCell>
        <mxCell id="4LPt7A7u2BAdctlP4rSh-63" value="" style="endArrow=none;html=1;rounded=0;entryX=0.5;entryY=1;entryDx=0;entryDy=0;exitX=0;exitY=0;exitDx=0;exitDy=0;" edge="1" parent="1" source="4LPt7A7u2BAdctlP4rSh-57">
          <mxGeometry width="50" height="50" relative="1" as="geometry">
            <mxPoint x="129" y="985" as="sourcePoint" />
            <mxPoint x="129" y="910" as="targetPoint" />
          </mxGeometry>
        </mxCell>
        <mxCell id="4LPt7A7u2BAdctlP4rSh-64" value="" style="endArrow=none;html=1;rounded=0;entryX=0;entryY=0.5;entryDx=0;entryDy=0;exitX=1;exitY=0.5;exitDx=0;exitDy=0;" edge="1" parent="1" source="4LPt7A7u2BAdctlP4rSh-61" target="4LPt7A7u2BAdctlP4rSh-57">
          <mxGeometry width="50" height="50" relative="1" as="geometry">
            <mxPoint x="129" y="1035" as="sourcePoint" />
            <mxPoint x="129" y="960" as="targetPoint" />
          </mxGeometry>
        </mxCell>
        <mxCell id="4LPt7A7u2BAdctlP4rSh-65" value="Correct" style="rounded=1;arcSize=10;whiteSpace=wrap;html=1;align=center;" vertex="1" parent="1">
          <mxGeometry x="220" y="1460" width="100" height="40" as="geometry" />
        </mxCell>
        <mxCell id="4LPt7A7u2BAdctlP4rSh-66" value="answer" style="ellipse;whiteSpace=wrap;html=1;align=center;" vertex="1" parent="1">
          <mxGeometry x="50" y="1460" width="100" height="40" as="geometry" />
        </mxCell>
        <mxCell id="4LPt7A7u2BAdctlP4rSh-67" value="question" style="ellipse;whiteSpace=wrap;html=1;align=center;fontStyle=4;" vertex="1" parent="1">
          <mxGeometry x="400" y="1460" width="100" height="40" as="geometry" />
        </mxCell>
        <mxCell id="4LPt7A7u2BAdctlP4rSh-68" value="" style="endArrow=none;html=1;rounded=0;exitX=0;exitY=0.5;exitDx=0;exitDy=0;" edge="1" parent="1" source="4LPt7A7u2BAdctlP4rSh-65">
          <mxGeometry width="50" height="50" relative="1" as="geometry">
            <mxPoint x="150" y="1555" as="sourcePoint" />
            <mxPoint x="150" y="1480" as="targetPoint" />
          </mxGeometry>
        </mxCell>
        <mxCell id="4LPt7A7u2BAdctlP4rSh-69" value="" style="endArrow=none;html=1;rounded=0;entryX=0;entryY=0.5;entryDx=0;entryDy=0;exitX=1;exitY=0.5;exitDx=0;exitDy=0;" edge="1" parent="1" source="4LPt7A7u2BAdctlP4rSh-65" target="4LPt7A7u2BAdctlP4rSh-67">
          <mxGeometry width="50" height="50" relative="1" as="geometry">
            <mxPoint x="320" y="1495" as="sourcePoint" />
            <mxPoint x="320" y="1420" as="targetPoint" />
          </mxGeometry>
        </mxCell>
        <mxCell id="4LPt7A7u2BAdctlP4rSh-70" value="Corrections" style="shape=rhombus;perimeter=rhombusPerimeter;whiteSpace=wrap;html=1;align=center;" vertex="1" parent="1">
          <mxGeometry x="210" y="1200" width="120" height="60" as="geometry" />
        </mxCell>
        <mxCell id="4LPt7A7u2BAdctlP4rSh-71" value="" style="endArrow=none;html=1;rounded=0;entryX=0.5;entryY=1;entryDx=0;entryDy=0;exitX=0.5;exitY=0;exitDx=0;exitDy=0;" edge="1" parent="1" source="4LPt7A7u2BAdctlP4rSh-65" target="4LPt7A7u2BAdctlP4rSh-70">
          <mxGeometry width="50" height="50" relative="1" as="geometry">
            <mxPoint x="274.5" y="1315" as="sourcePoint" />
            <mxPoint x="274.5" y="1240" as="targetPoint" />
          </mxGeometry>
        </mxCell>
        <mxCell id="4LPt7A7u2BAdctlP4rSh-72" value="" style="endArrow=none;html=1;rounded=0;entryX=0.6;entryY=1.05;entryDx=0;entryDy=0;entryPerimeter=0;exitX=0.5;exitY=0;exitDx=0;exitDy=0;" edge="1" parent="1" source="4LPt7A7u2BAdctlP4rSh-70" target="4LPt7A7u2BAdctlP4rSh-57">
          <mxGeometry width="50" height="50" relative="1" as="geometry">
            <mxPoint x="270" y="1170" as="sourcePoint" />
            <mxPoint x="320" y="1120" as="targetPoint" />
          </mxGeometry>
        </mxCell>
        <mxCell id="4LPt7A7u2BAdctlP4rSh-73" value="QAList" style="shape=rhombus;perimeter=rhombusPerimeter;whiteSpace=wrap;html=1;align=center;" vertex="1" parent="1">
          <mxGeometry x="510" y="960" width="120" height="60" as="geometry" />
        </mxCell>
        <mxCell id="4LPt7A7u2BAdctlP4rSh-74" value="" style="endArrow=none;html=1;rounded=0;entryX=0;entryY=0.5;entryDx=0;entryDy=0;exitX=1;exitY=0.5;exitDx=0;exitDy=0;" edge="1" parent="1" source="4LPt7A7u2BAdctlP4rSh-57" target="4LPt7A7u2BAdctlP4rSh-73">
          <mxGeometry width="50" height="50" relative="1" as="geometry">
            <mxPoint x="309" y="995" as="sourcePoint" />
            <mxPoint x="309" y="920" as="targetPoint" />
          </mxGeometry>
        </mxCell>
        <mxCell id="4LPt7A7u2BAdctlP4rSh-75" value="" style="endArrow=none;html=1;rounded=0;entryX=0;entryY=0.5;entryDx=0;entryDy=0;exitX=1;exitY=0.5;exitDx=0;exitDy=0;" edge="1" parent="1" source="4LPt7A7u2BAdctlP4rSh-73" target="4LPt7A7u2BAdctlP4rSh-46">
          <mxGeometry width="50" height="50" relative="1" as="geometry">
            <mxPoint x="629" y="995" as="sourcePoint" />
            <mxPoint x="629" y="920" as="targetPoint" />
          </mxGeometry>
        </mxCell>
        <mxCell id="4LPt7A7u2BAdctlP4rSh-76" value="TheAnswers" style="shape=rhombus;perimeter=rhombusPerimeter;whiteSpace=wrap;html=1;align=center;" vertex="1" parent="1">
          <mxGeometry x="450" y="820" width="120" height="60" as="geometry" />
        </mxCell>
        <mxCell id="4LPt7A7u2BAdctlP4rSh-77" value="" style="endArrow=none;html=1;rounded=0;entryX=0;entryY=0.5;entryDx=0;entryDy=0;exitX=1;exitY=0;exitDx=0;exitDy=0;" edge="1" parent="1" source="4LPt7A7u2BAdctlP4rSh-57" target="4LPt7A7u2BAdctlP4rSh-76">
          <mxGeometry width="50" height="50" relative="1" as="geometry">
            <mxPoint x="310" y="970" as="sourcePoint" />
            <mxPoint x="360" y="920" as="targetPoint" />
          </mxGeometry>
        </mxCell>
        <mxCell id="4LPt7A7u2BAdctlP4rSh-78" value="" style="endArrow=none;html=1;rounded=0;entryX=0;entryY=1;entryDx=0;entryDy=0;exitX=1;exitY=0.5;exitDx=0;exitDy=0;" edge="1" parent="1" source="4LPt7A7u2BAdctlP4rSh-76" target="4LPt7A7u2BAdctlP4rSh-38">
          <mxGeometry width="50" height="50" relative="1" as="geometry">
            <mxPoint x="569" y="855" as="sourcePoint" />
            <mxPoint x="569" y="780" as="targetPoint" />
          </mxGeometry>
        </mxCell>
        <mxCell id="4LPt7A7u2BAdctlP4rSh-79" value="Questions" style="rounded=1;arcSize=10;whiteSpace=wrap;html=1;align=center;" vertex="1" parent="1">
          <mxGeometry x="-260" y="1220" width="100" height="40" as="geometry" />
        </mxCell>
        <mxCell id="4LPt7A7u2BAdctlP4rSh-80" value="QList" style="shape=rhombus;perimeter=rhombusPerimeter;whiteSpace=wrap;html=1;align=center;" vertex="1" parent="1">
          <mxGeometry x="-30" y="1110" width="120" height="60" as="geometry" />
        </mxCell>
        <mxCell id="4LPt7A7u2BAdctlP4rSh-81" value="" style="endArrow=none;html=1;rounded=0;entryX=0;entryY=0.5;entryDx=0;entryDy=0;exitX=0.5;exitY=0;exitDx=0;exitDy=0;edgeStyle=orthogonalEdgeStyle;" edge="1" parent="1" source="4LPt7A7u2BAdctlP4rSh-79" target="4LPt7A7u2BAdctlP4rSh-80">
          <mxGeometry width="50" height="50" relative="1" as="geometry">
            <mxPoint x="-160" y="1215" as="sourcePoint" />
            <mxPoint x="-160" y="1140" as="targetPoint" />
          </mxGeometry>
        </mxCell>
        <mxCell id="4LPt7A7u2BAdctlP4rSh-82" value="" style="endArrow=none;html=1;rounded=0;entryX=0;entryY=1;entryDx=0;entryDy=0;exitX=1;exitY=0.5;exitDx=0;exitDy=0;" edge="1" parent="1" source="4LPt7A7u2BAdctlP4rSh-80" target="4LPt7A7u2BAdctlP4rSh-57">
          <mxGeometry width="50" height="50" relative="1" as="geometry">
            <mxPoint x="130" y="1140" as="sourcePoint" />
            <mxPoint x="90" y="1062.5" as="targetPoint" />
          </mxGeometry>
        </mxCell>
        <mxCell id="4LPt7A7u2BAdctlP4rSh-83" value="Keys" style="rounded=1;arcSize=10;whiteSpace=wrap;html=1;align=center;" vertex="1" parent="1">
          <mxGeometry x="620" y="1270" width="100" height="40" as="geometry" />
        </mxCell>
        <mxCell id="4LPt7A7u2BAdctlP4rSh-84" value="AList" style="shape=rhombus;perimeter=rhombusPerimeter;whiteSpace=wrap;html=1;align=center;" vertex="1" parent="1">
          <mxGeometry x="400" y="1120" width="120" height="60" as="geometry" />
        </mxCell>
        <mxCell id="4LPt7A7u2BAdctlP4rSh-85" value="" style="endArrow=none;html=1;rounded=0;entryX=1;entryY=1;entryDx=0;entryDy=0;" edge="1" parent="1" target="4LPt7A7u2BAdctlP4rSh-57">
          <mxGeometry width="50" height="50" relative="1" as="geometry">
            <mxPoint x="400" y="1150" as="sourcePoint" />
            <mxPoint x="400" y="1080" as="targetPoint" />
          </mxGeometry>
        </mxCell>
        <mxCell id="4LPt7A7u2BAdctlP4rSh-86" value="" style="endArrow=none;html=1;rounded=0;exitX=0.5;exitY=0;exitDx=0;exitDy=0;entryX=1;entryY=0.5;entryDx=0;entryDy=0;edgeStyle=orthogonalEdgeStyle;" edge="1" parent="1" source="4LPt7A7u2BAdctlP4rSh-83" target="4LPt7A7u2BAdctlP4rSh-84">
          <mxGeometry width="50" height="50" relative="1" as="geometry">
            <mxPoint x="520" y="1220" as="sourcePoint" />
            <mxPoint x="560" y="1180" as="targetPoint" />
          </mxGeometry>
        </mxCell>
        <mxCell id="4LPt7A7u2BAdctlP4rSh-87" value="N" style="text;html=1;align=center;verticalAlign=middle;resizable=0;points=[];autosize=1;strokeColor=none;fillColor=none;" vertex="1" parent="1">
          <mxGeometry x="790" y="740" width="30" height="30" as="geometry" />
        </mxCell>
        <mxCell id="4LPt7A7u2BAdctlP4rSh-88" value="N" style="text;html=1;align=center;verticalAlign=middle;resizable=0;points=[];autosize=1;strokeColor=none;fillColor=none;" vertex="1" parent="1">
          <mxGeometry x="850" y="745" width="30" height="30" as="geometry" />
        </mxCell>
        <mxCell id="4LPt7A7u2BAdctlP4rSh-89" value="N" style="text;html=1;align=center;verticalAlign=middle;resizable=0;points=[];autosize=1;strokeColor=none;fillColor=none;" vertex="1" parent="1">
          <mxGeometry x="-230" y="1200" width="30" height="30" as="geometry" />
        </mxCell>
        <mxCell id="4LPt7A7u2BAdctlP4rSh-90" value="N" style="text;html=1;align=center;verticalAlign=middle;resizable=0;points=[];autosize=1;strokeColor=none;fillColor=none;" vertex="1" parent="1">
          <mxGeometry x="650" y="1250" width="30" height="30" as="geometry" />
        </mxCell>
        <mxCell id="4LPt7A7u2BAdctlP4rSh-91" value="N" style="text;html=1;align=center;verticalAlign=middle;resizable=0;points=[];autosize=1;strokeColor=none;fillColor=none;" vertex="1" parent="1">
          <mxGeometry x="245" y="1440" width="30" height="30" as="geometry" />
        </mxCell>
        <mxCell id="4LPt7A7u2BAdctlP4rSh-92" value="1" style="text;html=1;align=center;verticalAlign=middle;resizable=0;points=[];autosize=1;strokeColor=none;fillColor=none;" vertex="1" parent="1">
          <mxGeometry x="255" y="650" width="30" height="30" as="geometry" />
        </mxCell>
        <mxCell id="4LPt7A7u2BAdctlP4rSh-95" value="1" style="text;html=1;align=center;verticalAlign=middle;resizable=0;points=[];autosize=1;strokeColor=none;fillColor=none;" vertex="1" parent="1">
          <mxGeometry x="250" y="950" width="30" height="30" as="geometry" />
        </mxCell>
        <mxCell id="4LPt7A7u2BAdctlP4rSh-96" value="1" style="text;html=1;align=center;verticalAlign=middle;resizable=0;points=[];autosize=1;strokeColor=none;fillColor=none;" vertex="1" parent="1">
          <mxGeometry x="245" y="1010" width="30" height="30" as="geometry" />
        </mxCell>
        <mxCell id="4LPt7A7u2BAdctlP4rSh-97" value="1" style="text;html=1;align=center;verticalAlign=middle;resizable=0;points=[];autosize=1;strokeColor=none;fillColor=none;" vertex="1" parent="1">
          <mxGeometry x="200" y="1000" width="30" height="30" as="geometry" />
        </mxCell>
        <mxCell id="4LPt7A7u2BAdctlP4rSh-98" value="1" style="text;html=1;align=center;verticalAlign=middle;resizable=0;points=[];autosize=1;strokeColor=none;fillColor=none;" vertex="1" parent="1">
          <mxGeometry x="300" y="990" width="30" height="30" as="geometry" />
        </mxCell>
        <mxCell id="4LPt7A7u2BAdctlP4rSh-99" value="1" style="text;html=1;align=center;verticalAlign=middle;resizable=0;points=[];autosize=1;strokeColor=none;fillColor=none;" vertex="1" parent="1">
          <mxGeometry x="840" y="950" width="30" height="30" as="geometry" />
        </mxCell>
        <mxCell id="4LPt7A7u2BAdctlP4rSh-100" value="N" style="text;html=1;align=center;verticalAlign=middle;resizable=0;points=[];autosize=1;strokeColor=none;fillColor=none;" vertex="1" parent="1">
          <mxGeometry x="770" y="970" width="30" height="30" as="geometry" />
        </mxCell>
        <mxCell id="4LPt7A7u2BAdctlP4rSh-101" value="1" style="text;html=1;align=center;verticalAlign=middle;resizable=0;points=[];autosize=1;strokeColor=none;fillColor=none;" vertex="1" parent="1">
          <mxGeometry x="300" y="970" width="30" height="30" as="geometry" />
        </mxCell>
      </root>
    </mxGraphModel>
  </diagram>
</mxfile>
